<svg width="100" height="100" viewBox="0 0 100 100" fill="none" xmlns="http://www.w3.org/2000/svg">
<g clip-path="url(#clip0_71_50)">
<rect width="100" height="100" rx="10" fill="white"/>
<path d="M13.7806 72.55C17.7406 72.55 20.7839 72.44 22.9106 72.22C25.0372 72 26.5772 71.45 27.5306 70.57C28.5572 69.6167 29.1439 68.26 29.2906 66.5C29.4372 64.1533 29.5106 61.7333 29.5106 59.24V12.82H51.5106V51.76C51.5106 58.8 51.4006 64.19 51.1806 67.93C50.9606 71.67 50.4839 74.7867 49.7506 77.28C48.9439 79.9933 47.7339 82.12 46.1206 83.66C44.5806 85.1267 42.4172 86.2267 39.6306 86.96C37.0639 87.62 33.8372 88.06 29.9506 88.28C26.1372 88.4267 20.7472 88.5 13.7806 88.5V72.55Z" fill="#1F1F1F"/>
<path d="M65.3491 70.57H87.5691V88.5H65.3491V70.57Z" fill="#E38445"/>
</g>
<defs>
<clipPath id="clip0_71_50">
<rect width="100" height="100" rx="10" fill="white"/>
</clipPath>
</defs>
</svg>
