<svg id="Camada_1" data-name="Camada 1" xmlns="http://www.w3.org/2000/svg" viewBox="0 0 51.84 33.68"><defs><style>.cls-1{fill:#001d21;}</style></defs><title>Mario Logo</title><polygon class="cls-1" points="46.03 2.1 5.67 2.1 1.5 6.4 1.5 31.75 4.57 33.68 6.94 31.75 6.94 6.4 19.66 6.4 19.66 8.68 29.4 8.68 29.4 6.4 44.59 6.4 44.62 9.28 42.08 11.28 42.08 16.59 44.64 16.59 44.59 27.34 33.83 27.37 33.83 18.77 31.58 20.67 31.58 31.75 50.33 31.75 50.33 6.4 46.03 2.1"/><polygon class="cls-1" points="47.27 0 4.42 0 0 4.57 0 33.68 4.57 33.68 4.57 4.57 20.33 4.57 20.33 6.99 28.55 6.99 28.55 4.57 47.27 4.57 47.27 9.75 44.55 9.75 44.55 15.38 47.27 15.38 47.27 29 34.31 29.03 34.32 17.7 29.81 19.71 29.8 33.68 51.84 33.68 51.84 4.57 47.27 0"/></svg>